<svg width="42" height="45" viewBox="0 0 42 45" fill="none" xmlns="http://www.w3.org/2000/svg">
<path d="M8.39995 9C7.28604 9 6.21776 9.47411 5.4301 10.318C4.64245 11.1619 4.19995 12.3065 4.19995 13.5V15.75H37.7999V13.5C37.7999 12.3065 37.3574 11.1619 36.5698 10.318C35.7821 9.47411 34.7139 9 33.5999 9H8.39995Z" fill="white"/>
<path fill-rule="evenodd" clip-rule="evenodd" d="M37.7999 20.25H4.19995V31.5C4.19995 32.6935 4.64245 33.8381 5.4301 34.682C6.21776 35.5259 7.28604 36 8.39995 36H33.5999C34.7139 36 35.7821 35.5259 36.5698 34.682C37.3574 33.8381 37.7999 32.6935 37.7999 31.5V20.25ZM8.39995 29.25C8.39995 28.6533 8.6212 28.081 9.01503 27.659C9.40885 27.2371 9.943 27 10.5 27H12.6C13.1569 27 13.691 27.2371 14.0849 27.659C14.4787 28.081 14.7 28.6533 14.7 29.25C14.7 29.8467 14.4787 30.419 14.0849 30.841C13.691 31.2629 13.1569 31.5 12.6 31.5H10.5C9.943 31.5 9.40885 31.2629 9.01503 30.841C8.6212 30.419 8.39995 29.8467 8.39995 29.25ZM18.9 27C18.343 27 17.8089 27.2371 17.415 27.659C17.0212 28.081 16.8 28.6533 16.8 29.25C16.8 29.8467 17.0212 30.419 17.415 30.841C17.8089 31.2629 18.343 31.5 18.9 31.5H21C21.5569 31.5 22.091 31.2629 22.4849 30.841C22.8787 30.419 23.1 29.8467 23.1 29.25C23.1 28.6533 22.8787 28.081 22.4849 27.659C22.091 27.2371 21.5569 27 21 27H18.9Z" fill="white"/>
</svg>
